<?xml version="1.0" encoding="UTF-8"?>
<svg width="180px" height="180px" viewBox="0 0 180 180" version="1.1" xmlns="http://www.w3.org/2000/svg" xmlns:xlink="http://www.w3.org/1999/xlink">
    <!-- Generator: Sketch 50.2 (55047) - http://www.bohemiancoding.com/sketch -->
    <title>icon</title>
    <desc>Created with Sketch.</desc>
    <defs></defs>
    <g id="icon" stroke="none" stroke-width="1" fill="none" fill-rule="evenodd">
        <path d="M0,0 L180,0 L180,180 L0,180 L0,0 Z M131.691429,113.365714 C131.691429,101.434286 126.885714,91.9885714 115.451429,87.1828571 C123.405714,82.7085714 128.045714,73.0971429 128.045714,63.1542857 C128.045714,43.2685714 113.96,32 90.4285714,32 L49,32 L49,148 L91.7542857,148 C113.96,148 131.691429,136.897143 131.691429,113.365714 Z M91.0914286,99.9428571 C98.5485714,99.9428571 102.525714,104.748571 102.525714,111.708571 C102.525714,118.337143 98.3828571,123.64 90.9257143,123.64 L77.1714286,123.64 L77.1714286,99.9428571 L91.0914286,99.9428571 Z M88.9371429,56.1942857 C95.8971429,56.1942857 99.2114286,60.3371429 99.2114286,66.4685714 C99.2114286,72.7657143 95.7314286,77.24 89.2685714,77.24 L77.1714286,77.24 L77.1714286,56.1942857 L88.9371429,56.1942857 Z" id="Combined-Shape" fill="#EE0048"></path>
    </g>
</svg>